<?xml version="1.0" encoding="utf-8"?>
<!-- Generator: Adobe Illustrator 24.3.0, SVG Export Plug-In . SVG Version: 6.00 Build 0)  -->
<svg version="1.1" id="Layer_1" xmlns="http://www.w3.org/2000/svg" xmlns:xlink="http://www.w3.org/1999/xlink" x="0px" y="0px"
	 viewBox="0 0 198.19 277.14" style="enable-background:new 0 0 198.19 277.14;" xml:space="preserve">
<style type="text/css">
	.st0{fill:#FFFFFF;}
	.st1{fill:#E20613;}
</style>
<g>
	<polygon class="st0" points="75.77,104.25 75.77,52.16 128.99,104.25 134.68,104.25 81.3,51.73 129.13,0 124.01,0 75.77,51.88 
		75.77,0 71.51,0 71.51,104.25 	"/>
	<polygon class="st0" points="160.73,4.19 160.73,104.3 164.96,104.3 164.96,4.19 193.31,4.19 193.31,0 132.39,0 132.39,4.19 	"/>
	<path class="st0" d="M59.46,80.13c0.39,17.01-13.71,20.38-25.34,20.38c-16.37,0-26.31-6.83-26.31-21.53v-6.48H3.56v5.76
		c0,14.12,7.74,26.42,30.76,26.42c17.41,0,29.4-7.26,29.4-24.12V0h-4.26V80.13z"/>
	<path class="st0" d="M51.38,211.51h4.19v-20.14h10.49v-3.78H55.57v-79.6h-5.73L0,183.53v7.84h51.38V211.51z M2.13,187.59
		l49.25-74.56v74.56H2.13z"/>
	<path class="st0" d="M101.72,213.33c17.35,0,31.06-13.71,31.48-31.06c-0.27-13.98-9.24-25.47-21.68-29.38
		c8.81-3.78,15.1-12.73,15.1-22.39c0-13.56-11.18-24.34-24.9-24.34c-13.7,0-24.89,11.34-24.89,24.2v0.13
		c0,9.66,6.3,18.61,15.1,22.39c-12.59,4.06-21.4,15.53-21.68,29.38C70.66,199.62,84.37,213.33,101.72,213.33z M81.02,130.65v-0.14
		c0-11.6,9.09-20.69,20.7-20.69c11.62,0,20.7,9.08,20.7,20.69c0,11.48-9.09,20.58-20.7,20.58
		C90.11,151.08,81.02,141.98,81.02,130.65z M74.45,182.27c0-15.25,12.03-27.28,27.27-27.28c15.25,0,27.28,12.04,27.28,27.28
		c0,15.24-12.02,27.29-27.28,27.29c-15.24,0-27.27-12.04-27.27-27.15V182.27z"/>
	<polygon class="st1" points="124.01,0 75.77,0 75.77,51.88 	"/>
	<path class="st1" d="M122.42,130.5c0-11.6-9.09-20.69-20.7-20.69c-11.61,0-20.7,9.08-20.7,20.69v0.14
		c0,11.34,9.09,20.43,20.7,20.43C113.33,151.08,122.42,141.98,122.42,130.5z"/>
	<path class="st1" d="M198,0h-4.69v4.19h-28.35V104.3h-4.23V4.19h-28.35V0h-3.26L81.3,51.73l53.38,52.52h-5.69l-53.23-52.1v52.1
		h-4.26V0h-7.14h-3.81H0v183.53l49.84-75.55h5.73v79.6h10.49v3.78H55.57v20.14h-4.19v-20.14H0V277v0.14h198.19V0H198z M63.72,80.56
		c0,16.86-11.99,24.12-29.4,24.12c-23.02,0-30.76-12.3-30.76-26.42v-5.76h4.26v6.48c0,14.7,9.94,21.53,26.31,21.53
		c11.63,0,25.73-3.38,25.34-20.38V0h4.26V80.56z M91.92,152.89c-8.8-3.78-15.1-12.73-15.1-22.39v-0.13c0-12.86,11.2-24.2,24.89-24.2
		c13.72,0,24.9,10.77,24.9,24.34c0,9.66-6.29,18.61-15.1,22.39c12.45,3.92,21.41,15.4,21.68,29.38
		c-0.42,17.35-14.13,31.06-31.48,31.06c-17.34,0-31.06-13.71-31.47-31.06C70.52,168.42,79.33,156.95,91.92,152.89z"/>
	<polygon class="st1" points="51.38,113.03 2.13,187.59 51.38,187.59 	"/>
	<path class="st1" d="M101.72,209.56c15.25,0,27.28-12.04,27.28-27.29c0-15.25-12.02-27.28-27.28-27.28
		c-15.24,0-27.27,12.04-27.27,27.28v0.14C74.45,197.51,86.47,209.56,101.72,209.56z"/>
</g>
</svg>
